<?xml version="1.0" encoding="iso-8859-1"?>
<!-- Generator: Adobe Illustrator 19.0.0, SVG Export Plug-In . SVG Version: 6.00 Build 0)  -->
<svg version="1.1" id="Capa_1" xmlns="http://www.w3.org/2000/svg" xmlns:xlink="http://www.w3.org/1999/xlink" x="0px" y="0px"
	 viewBox="0 0 496 496" style="enable-background:new 0 0 496 496;" xml:space="preserve">
<path style="fill:#FFA64D;" d="M160,168l24,40l16-24l10.944,32.824C214.288,226.872,216,237.4,216,248l0,0c0,22.088-17.912,40-40,40
	l0,0c-22.088,0-40-17.912-40-40l0,0c0-10.584,1.904-21.072,5.616-30.984L160,168z"/>
<path style="fill:#3F3A34;" d="M488,184c-59.56,0-111.088,34.52-136,84.528v-23.6c0-39.336,7.856-77.616,23.352-113.776
	l-14.704-6.304c-10.432,24.336-17.552,49.592-21.36,75.464l-1.104-4.032c-7.208-26.448-21.272-50.664-40.656-70.056
	C267.728,96.416,228.104,80,185.952,80H168v16h17.952c37.872,0,73.488,14.752,100.264,41.528
	c17.424,17.424,30.056,39.192,36.528,62.96l13.128,48.144C317.44,219.464,284.984,200,248,200h-8v8
	c0,54.648,42.392,99.48,96,103.592v21.6l-0.216,0.272c-15.48,19.36-35.192,34.688-57.536,45.08C279.344,372.52,280,366.336,280,360
	c0-22.176-8.288-38.24-17.256-52.304L260.392,304H248v-16h-64v-32h-16v32h-64v48h16v48h112v-48h16v-16h3.552
	c7.56,12.496,12.448,24.456,12.448,40c0,48.52-39.48,88-88,88s-88-39.48-88-88H72c0,37.072,19.552,69.584,48.832,88H80
	c-13.232,0-24,10.768-24,24s10.768,24,24,24h192c13.232,0,24-10.768,24-24s-10.768-24-24-24h-40.816
	c18.568-11.712,33.224-29.096,41.432-49.752c29.552-11.096,55.568-29.824,75.368-54.456C429.944,341.656,496,274.464,496,192v-8H488
	z M321.792,293.104c-35.176-9.184-61.872-39.6-65.4-76.712c37.112,3.528,67.528,30.216,76.712,65.4l-47.448-47.448l-11.312,11.312
	L321.792,293.104z M232,320h-32v16h16v32h-80v-32h48v-16h-64v-16h112V320z M272,464c4.416,0,8,3.592,8,8s-3.584,8-8,8H80
	c-4.416,0-8-3.592-8-8s3.584-8,8-8H272z M364.92,326.392l57.44-57.448l-11.312-11.312l-57.44,57.44
	c9.68-62.44,61.984-110.976,126.144-114.832C475.896,264.408,427.36,316.72,364.92,326.392z"/>
<g>
	<path style="fill:#FFA64D;" d="M88,176c-23.944,0-43.84-17.616-47.432-40.568C17.616,131.84,0,111.944,0,88
		s17.616-43.84,40.568-47.432C44.16,17.616,64.056,0,88,0s43.84,17.616,47.432,40.568C158.384,44.16,176,64.056,176,88
		s-17.616,43.84-40.568,47.432C131.84,158.384,111.944,176,88,176z"/>
	<path style="fill:#FFA64D;" d="M408,176c-23.944,0-43.84-17.616-47.432-40.568C337.616,131.84,320,111.944,320,88
		s17.616-43.84,40.568-47.432C364.16,17.616,384.056,0,408,0s43.84,17.616,47.432,40.568C478.384,44.16,496,64.056,496,88
		s-17.616,43.84-40.568,47.432C451.84,158.384,431.944,176,408,176z"/>
</g>
<g>
	<rect x="168" y="224" style="fill:#3F3A34;" width="16" height="16"/>
	<path style="fill:#3F3A34;" d="M88,120c-17.648,0-32-14.352-32-32s14.352-32,32-32s32,14.352,32,32S105.648,120,88,120z M88,72
		c-8.824,0-16,7.176-16,16s7.176,16,16,16s16-7.176,16-16S96.824,72,88,72z"/>
	<path style="fill:#3F3A34;" d="M408,120c-17.648,0-32-14.352-32-32s14.352-32,32-32s32,14.352,32,32S425.648,120,408,120z M408,72
		c-8.824,0-16,7.176-16,16s7.176,16,16,16s16-7.176,16-16S416.824,72,408,72z"/>
	
		<rect x="425.199" y="238.129" transform="matrix(-0.7071 0.7071 -0.7071 -0.7071 914.6964 113.3784)" style="fill:#3F3A34;" width="17.336" height="16"/>
</g>
<g>
</g>
<g>
</g>
<g>
</g>
<g>
</g>
<g>
</g>
<g>
</g>
<g>
</g>
<g>
</g>
<g>
</g>
<g>
</g>
<g>
</g>
<g>
</g>
<g>
</g>
<g>
</g>
<g>
</g>
</svg>
