<?xml version="1.0" encoding="iso-8859-1"?>
<!-- Generator: Adobe Illustrator 19.0.0, SVG Export Plug-In . SVG Version: 6.00 Build 0)  -->
<svg xmlns="http://www.w3.org/2000/svg" xmlns:xlink="http://www.w3.org/1999/xlink" version="1.1" id="Capa_1" x="0px" y="0px" viewBox="0 0 489.984 489.984" style="enable-background:new 0 0 489.984 489.984;" xml:space="preserve" width="512px" height="512px">
<g>
	<path d="M487.804,84.584c-1-10.4-11.5-18.8-22.9-16.7c-31.7,5-60.5,18.1-84.1,38.1c-11.6-38.3-33.9-79.2-64.9-101.6   c-8.3-7.3-21.9-5.2-28.1,4.2c-23.4,31.4-32.4,78.4-31,118.8c-29.3-12.5-61.5-16.4-94.1-11.3c-11.5,1.6-18.9,12.7-16.7,22.9   c6.9,44.9,31.6,84,67.6,110.6c31.1,22.8,67.5,33.9,105.4,32.8c-1.8,34-13.2,66.7-34.4,94.9c-16.7,22.6-37.8,40.2-61.4,52.4   c1.4-4.7,2.5-9.5,3.3-14.4c4.2-27.1-2.1-54.2-18.8-76.1c-6.3-9.4-18.8-10.4-28.1-4.2c-9.4,6.3-10.4,18.8-4.2,28.1   c9.4,13.5,13.5,29.2,11.5,45.9c-3,16.1-10.9,29.3-23.7,39.6c-44.7,6-91.7-4.4-130.7-32.8c-8.3-7.3-21.9-5.2-28.1,4.2   c-7.3,8.3-5.2,21.9,4.2,28.1c39.4,28.4,85.3,41.9,130.1,41.9c57.9,0,115.7-22.8,158.6-65.2c27.1-18.5,67.1-14.1,87.2,13.1   c12.6,15,25.4,8.3,29.2,5.2c9.4-6.3,10.4-18.8,4.2-28.1c-20.2-26.9-50.8-41.3-81.9-41.8c15.7-29.7,24.1-63.1,24.8-96.9   c39.1-9.8,72.8-32.4,96.8-65.5C483.604,174.184,495.104,129.384,487.804,84.584z M238.604,218.584c-21.6-16-37.6-38.2-46.6-62.7   c27.4-0.1,53.3,9,75.9,24.7c21.6,16,37.6,38.2,46.6,62.7C287.104,243.384,261.204,234.284,238.604,218.584z M301.204,152.384   c-6.3-28.1-4.2-68.8,8.3-99c20,24,34.2,61.4,38.1,90.2c-8.3,12.8-14.8,26.5-19.5,40.8   C320.504,173.684,301.404,153.384,301.204,152.384z M424.204,188.784c-16.7,21.9-38.6,38.6-64.6,46.9c1-26.1,9.4-52.1,25-74   c16.7-21.9,38.6-38.6,64.6-46.9C448.204,140.884,439.804,166.984,424.204,188.784z" fill="#777677"/>
</g>
<g>
</g>
<g>
</g>
<g>
</g>
<g>
</g>
<g>
</g>
<g>
</g>
<g>
</g>
<g>
</g>
<g>
</g>
<g>
</g>
<g>
</g>
<g>
</g>
<g>
</g>
<g>
</g>
<g>
</g>
</svg>
