<?xml version="1.0" encoding="iso-8859-1"?>
<!-- Generator: Adobe Illustrator 19.0.0, SVG Export Plug-In . SVG Version: 6.00 Build 0)  -->
<svg xmlns="http://www.w3.org/2000/svg" xmlns:xlink="http://www.w3.org/1999/xlink" version="1.1" id="Layer_1" x="0px" y="0px" viewBox="0 0 496 496" style="enable-background:new 0 0 496 496;" xml:space="preserve" width="512px" height="512px">
<g>
	<g>
		<g>
			<path d="M472,160h-60.688l9.584-9.584l-39.008-23.408C387.336,115.752,392,100.248,392,80c0-47.696-25.848-69.304-26.944-70.2     L361.4,6.824L324.768,21.48C319.088,8.848,306.44,0,291.72,0c-9.696,0-18.808,3.776-25.656,10.624L248,28.688l-18.064-18.064     C223.088,3.776,213.976,0,204.28,0c-14.72,0-27.368,8.848-33.048,21.472L134.6,6.816l-3.656,2.976     C129.84,10.696,104,32.304,104,80c0,20.248,4.664,35.752,10.112,47l-39.008,23.408L84.688,160H24c-13.232,0-24,10.768-24,24v56     h32v232c0,13.232,10.768,24,24,24h384c13.232,0,24-10.768,24-24V240h32v-56C496,170.768,485.232,160,472,160z M395.104,153.584     l-80.28,80.272l-49.4-119.976l5.632-5.632l34.248,47.952l13.016-9.296l-19.336-27.072l61.904,33.76l4.168-3.392     c0.4-0.328,4.08-3.432,8.592-9.488L395.104,153.584z M327.888,37.464l30.2-12.08C364,32.08,376,49.44,376,80     c0,29.816-11.424,47.072-17.456,54.096l-73.328-40l32.16-32.16C323.944,55.368,327.584,46.704,327.888,37.464z M204.28,16     c5.424,0,10.512,2.112,14.344,5.936L248,51.312l29.376-29.376C281.2,18.112,286.296,16,291.72,16     C302.896,16,312,25.104,312,36.28c0,5.424-2.112,10.512-5.936,14.344L248,108.688l-58.064-58.064     C186.112,46.8,184,41.704,184,36.28C184,25.104,193.104,16,204.28,16z M137.904,25.384l30.208,12.08     c0.296,9.24,3.944,17.904,10.512,24.472L188.688,72H168v16h36.688l6.096,6.096l-73.328,40C131.408,127.04,120,109.8,120,80     C120,49.416,132.024,32.048,137.904,25.384z M122.352,140.72c4.512,6.056,8.192,9.16,8.592,9.488l4.168,3.392l60.408-32.952     L169.6,155.2l12.8,9.592l42.464-56.624l5.704,5.712l-49.4,119.976l-80.272-80.272L122.352,140.72z M16,224v-40     c0-4.416,3.584-8,8-8h76.688l48,48H16z M192,480H56c-4.416,0-8-3.584-8-8V240h116.688l22.144,22.144l5.168-12.56V480z M288,480     h-80V240h80V480z M202.536,224l40.296-97.856l5.168,5.168l5.168-5.168L293.464,224H202.536z M448,472c0,4.416-3.584,8-8,8H304     V249.584l5.168,12.56L331.312,240H448V472z M480,224H347.312l48-48H472c4.416,0,8,3.584,8,8V224z" fill="#777677"/>
			<rect x="312" y="72" width="16" height="16" fill="#777677"/>
		</g>
	</g>
</g>
<g>
</g>
<g>
</g>
<g>
</g>
<g>
</g>
<g>
</g>
<g>
</g>
<g>
</g>
<g>
</g>
<g>
</g>
<g>
</g>
<g>
</g>
<g>
</g>
<g>
</g>
<g>
</g>
<g>
</g>
</svg>
