<?xml version="1.0" encoding="iso-8859-1"?>
<!-- Generator: Adobe Illustrator 19.0.0, SVG Export Plug-In . SVG Version: 6.00 Build 0)  -->
<svg xmlns="http://www.w3.org/2000/svg" xmlns:xlink="http://www.w3.org/1999/xlink" version="1.1" id="Capa_1" x="0px" y="0px" viewBox="0 0 496 496" style="enable-background:new 0 0 496 496;" xml:space="preserve" width="512px" height="512px">
<g>
	<g>
		<g>
			<path d="M168,128c13.232,0,24-10.768,24-24s-10.768-24-24-24s-24,10.768-24,24S154.768,128,168,128z M168,96c4.416,0,8,3.592,8,8     s-3.584,8-8,8s-8-3.592-8-8S163.584,96,168,96z" fill="#777677"/>
			<path d="M424.584,176h-2.064c0.904-2.512,1.48-5.184,1.48-8c0-9.4-5.488-17.472-13.376-21.408l19.288-50.64     C431.296,92.32,432,88.48,432,84.536V80c0-7.768-2.728-15.112-7.68-20.68L379.632,9.048C374.512,3.296,367.36,0,360,0     s-14.512,3.296-19.632,9.048L295.68,59.32C290.728,64.888,288,72.232,288,80v4.536c0,3.944,0.704,7.776,2.088,11.408     l19.288,50.648C301.488,150.528,296,158.6,296,168c0,2.816,0.576,5.488,1.472,8h-2.064c-2.808,0-5.56,0.208-8.28,0.52     c0.56-3.144,0.872-6.336,0.872-9.56c0-30.304-24.648-54.96-54.952-54.96h-2.832c-4.848,0-9.608,0.728-14.216,1.968V56h-96v57.968     c-4.608-1.24-9.368-1.968-14.216-1.968h-2.832C72.648,112,48,136.656,48,166.96c0,7.024,1.32,13.888,3.928,20.408l11.424,28.576     l-11,26.4C41.88,267.48,29.32,289.584,15.024,308.04C5.192,320.728,0,335.928,0,352c0,16.072,5.192,31.272,15.024,43.96     c14.304,18.464,26.864,40.568,37.336,65.704L66.664,496h202.672l12.376-29.712L289.904,496h140.184l63.336-229.592     c1.712-6.184,2.576-12.576,2.576-18.992C496,208.032,463.96,176,424.584,176z M305.04,90.248c-0.688-1.808-1.04-3.728-1.04-5.712     V80c0-3.792,1.32-7.448,3.632-10.048L352.32,19.68c4.216-4.744,11.144-4.744,15.36,0l44.688,50.272     C414.68,72.552,416,76.208,416,80v4.536c0,1.984-0.352,3.904-1.04,5.712L394.488,144H384v16h16c4.416,0,8,3.592,8,8s-3.584,8-8,8     h-80c-4.416,0-8-3.592-8-8s3.584-8,8-8h48v-16h-42.488L305.04,90.248z M136,72h64v49.08c-0.088,0.056-0.184,0.096-0.264,0.152     L168,142.384l-31.736-21.16c-0.088-0.056-0.184-0.096-0.264-0.152V72z M102.952,128h2.832c7.72,0,15.192,2.264,21.608,6.544     L168,161.616l40.608-27.072c6.416-4.28,13.888-6.544,21.608-6.544h2.832C254.52,128,272,145.48,272,166.96     c0,4.832-0.92,9.544-2.664,14.04c-13.712,5.4-25.368,14.888-33.416,27H77.232l-10.44-26.576C64.936,176.8,64,171.936,64,166.96     C64,145.48,81.48,128,102.952,128z M77.336,480l-10.208-24.496c-11.008-26.44-24.28-49.768-39.456-69.344     C20.04,376.304,16,364.496,16,352c0-12.496,4.04-24.304,11.68-34.16c15.168-19.576,28.44-42.904,39.448-69.344l1.16-2.776     L102.736,480H77.336z M160,480h-41.088L81.264,224H160V480z M176,480V224h52.024c-2.56,7.344-4.024,15.208-4.024,23.416     c0,6.424,0.864,12.816,2.568,18.992l14.472,52.456l-0.256-0.04L217.088,480H176z M268.872,455.504L258.664,480h-25.4     l18.16-123.504l23.568,85.432C272.904,446.416,270.792,450.904,268.872,455.504z M417.904,480H302.096l-15.448-56H433.36     L417.904,480z M478.008,262.152L437.768,408H282.232l-40.24-145.848c-0.56-2.016-0.936-4.08-1.256-6.152h238.528     C478.936,258.064,478.56,260.128,478.008,262.152z M240.552,240c3.64-27.056,26.824-48,54.856-48H320h80h24.584     c28.032,0,51.216,20.944,54.856,48H240.552z" fill="#777677"/>
			<rect x="280" y="288" width="160" height="16" fill="#777677"/>
			<rect x="424" y="320" width="16" height="16" fill="#777677"/>
			<rect x="280" y="320" width="128" height="16" fill="#777677"/>
		</g>
	</g>
</g>
<g>
</g>
<g>
</g>
<g>
</g>
<g>
</g>
<g>
</g>
<g>
</g>
<g>
</g>
<g>
</g>
<g>
</g>
<g>
</g>
<g>
</g>
<g>
</g>
<g>
</g>
<g>
</g>
<g>
</g>
</svg>
